HIERARCHY
ROOT Hips
{
	OFFSET -0.001795 -0.223333 0.028219
	CHANNELS 6 Xposition Yposition Zposition Zrotation Yrotation Xrotation 
	JOINT LeftUpLeg
	{
		OFFSET 0.069520 -0.091406 -0.006815
		CHANNELS 3 Zrotation Yrotation Xrotation
		JOINT LeftLeg
		{
			OFFSET 0.034277 -0.375199 -0.004496
			CHANNELS 3 Zrotation Yrotation Xrotation
			JOINT LeftFoot
			{
				OFFSET -0.013596 -0.397961 -0.043693
				CHANNELS 3 Zrotation Yrotation Xrotation
				JOINT LeftToe
				{
					OFFSET 0.026358 -0.055791 0.119288
					CHANNELS 3 Zrotation Yrotation Xrotation
					End Site
					{
						OFFSET 0.000000 0.000000 0.000000
					}
				}
			}
		}
	}
	JOINT RightUpLeg
	{
		OFFSET -0.067670 -0.090522 -0.004320
		CHANNELS 3 Zrotation Yrotation Xrotation
		JOINT RightLeg
		{
			OFFSET -0.038290 -0.382569 -0.008850
			CHANNELS 3 Zrotation Yrotation Xrotation
			JOINT RightFoot
			{
				OFFSET 0.015774 -0.398415 -0.042312
				CHANNELS 3 Zrotation Yrotation Xrotation
				JOINT RightToe
				{
					OFFSET -0.025372 -0.048144 0.123348
					CHANNELS 3 Zrotation Yrotation Xrotation
					End Site
					{
						OFFSET 0.000000 0.000000 0.000000
					}
				}
			}
		}
	}
	JOINT Spine
	{
		OFFSET -0.002533 0.108963 -0.026696
		CHANNELS 3 Zrotation Yrotation Xrotation
		JOINT Spine1
		{
			OFFSET 0.005487 0.135180 0.001092
			CHANNELS 3 Zrotation Yrotation Xrotation
			JOINT Spine2
			{
				OFFSET 0.001457 0.052922 0.025425
				CHANNELS 3 Zrotation Yrotation Xrotation
				JOINT Neck
				{
					OFFSET -0.002778 0.213870 -0.042857
					CHANNELS 3 Zrotation Yrotation Xrotation
					JOINT Head
					{
						OFFSET 0.005152 0.064970 0.051349
						CHANNELS 3 Zrotation Yrotation Xrotation
						End Site
						{
							OFFSET 0.000000 0.000000 0.000000
						}
					}
				}
				JOINT LeftShoulder
				{
					OFFSET 0.078845 0.121749 -0.034090
					CHANNELS 3 Zrotation Yrotation Xrotation
					JOINT LeftArm
					{
						OFFSET 0.090977 0.030469 -0.008868
						CHANNELS 3 Zrotation Yrotation Xrotation
						JOINT LeftForeArm
						{
							OFFSET 0.259612 -0.012772 -0.027456
							CHANNELS 3 Zrotation Yrotation Xrotation
							JOINT LeftHand
							{
								OFFSET 0.249234 0.008986 -0.001171
								CHANNELS 3 Zrotation Yrotation Xrotation
								End Site
								{
									OFFSET 0.000000 0.000000 0.000000
								}
							}
						}
					}
				}
				JOINT RightShoulder
				{
					OFFSET -0.081759 0.118833 -0.038615
					CHANNELS 3 Zrotation Yrotation Xrotation
					JOINT RightArm
					{
						OFFSET -0.096012 0.032551 -0.009143
						CHANNELS 3 Zrotation Yrotation Xrotation
						JOINT RightForeArm
						{
							OFFSET -0.253742 -0.013329 -0.021401
							CHANNELS 3 Zrotation Yrotation Xrotation
							JOINT RightHand
							{
								OFFSET -0.255298 0.007772 -0.005559
								CHANNELS 3 Zrotation Yrotation Xrotation
								End Site
								{
									OFFSET 0.000000 0.000000 0.000000
								}
							}
						}
					}
				}
			}
		}
	}
}
MOTION
Frames: 16
Frame Time: 0.050000
0.002842 0.966559 -0.021068 -3.587493 3.634008 -2.493608 10.670494 -0.277853 9.148604 -4.065896 0.372189 -9.127014 -2.048875 4.174950 18.511286 0.000000 0.000000 0.000000 2.789878 -1.167098 8.553771 -1.688827 -0.248469 -7.843150 -0.300424 -6.587094 17.707925 0.000000 0.000000 0.000000 -1.277019 -0.291052 8.723453 3.504145 0.040081 -29.289154 -4.905929 -4.715340 26.440329 5.839050 -3.070479 -19.575477 0.000000 0.000000 0.000000 -12.312290 3.437484 -1.922774 -22.723998 -21.609583 -0.767364 26.392618 -31.400375 -5.800991 0.000000 0.000000 0.000000 -14.364278 -1.514523 0.442871 -1.163671 19.558896 -1.476495 -46.870356 9.302344 -3.721777 0.000000 0.000000 0.000000 
0.002983 0.966370 -0.021051 -3.609776 3.498505 -2.539614 10.685321 -0.271027 9.085240 -4.109164 0.377586 -8.835193 -1.896059 4.290104 18.249638 0.000000 0.000000 0.000000 2.705450 -1.160551 8.573429 -1.753959 -0.243158 -7.804038 -0.263629 -6.515364 17.581873 0.000000 0.000000 0.000000 -1.220902 -0.304601 8.988432 3.664166 0.019565 -29.564978 -5.121934 -4.805763 26.485248 5.663435 -2.973244 -19.655295 0.000000 0.000000 0.000000 -13.053974 3.125034 -1.790659 -23.367619 -22.117967 -0.685805 22.415035 -27.890268 -4.097774 0.000000 0.000000 0.000000 -14.525856 -1.565305 0.465585 -1.574943 19.830659 -1.531751 -46.740176 7.441307 -2.995288 0.000000 0.000000 0.000000 
0.002960 0.966023 -0.021045 -3.713848 3.271668 -2.618354 10.785252 -0.268219 9.023285 -4.221737 0.385362 -8.622735 -1.731725 4.437737 18.064416 0.000000 0.000000 0.000000 2.885872 -1.171898 8.557741 -1.808628 -0.234309 -7.698765 -0.220667 -6.451316 17.477910 0.000000 0.000000 0.000000 -1.157830 -0.316107 9.183178 3.653885 0.016423 -29.485659 -5.274346 -4.888455 26.442569 5.831100 -3.129615 -19.586053 0.000000 0.000000 0.000000 -13.879222 2.631183 -1.556975 -24.022312 -22.175727 -0.674612 19.987646 -25.019153 -3.091292 0.000000 0.000000 0.000000 -14.377524 -1.494461 0.505287 -1.835614 19.955724 -1.566145 -46.995203 5.356508 -2.221796 0.000000 0.000000 0.000000 
0.002799 0.966000 -0.021003 -3.717537 3.097664 -2.783584 10.944330 -0.272198 9.073960 -4.378626 0.394140 -8.414598 -1.731311 4.414104 18.052811 0.000000 0.000000 0.000000 2.854559 -1.185212 8.698975 -1.752609 -0.241620 -7.783433 -0.123164 -6.322702 17.515999 0.000000 0.000000 0.000000 -1.165122 -0.326917 9.501856 3.828445 -0.023036 -29.415021 -5.612591 -4.788240 26.256887 5.941652 -3.173655 -19.739770 0.000000 0.000000 0.000000 -14.784391 2.533399 -1.564405 -25.097809 -22.137177 -0.633669 18.277113 -23.180439 -2.493196 0.000000 0.000000 0.000000 -13.968678 -1.245186 0.542291 -2.146790 20.320153 -1.620349 -47.147952 3.461392 -1.463082 0.000000 0.000000 0.000000 
0.002450 0.965569 -0.020950 -3.755525 3.057700 -2.858402 11.198612 -0.291892 8.986621 -4.719604 0.406860 -8.202115 -1.484150 4.691391 17.814091 0.000000 0.000000 0.000000 2.959102 -1.193943 8.700217 -1.917472 -0.234979 -7.791989 -0.290161 -6.606441 17.471483 0.000000 0.000000 0.000000 -1.487329 -0.308755 9.716687 3.925510 -0.049298 -29.292838 -5.688210 -4.941249 26.153237 5.961920 -3.203780 -19.819092 0.000000 0.000000 0.000000 -15.526344 2.532650 -1.573691 -26.164873 -21.512437 -0.716596 17.431769 -23.064637 -2.288387 0.000000 0.000000 0.000000 -13.535950 -1.016679 0.596677 -1.996030 20.713903 -1.657729 -47.767399 1.533578 -0.732509 0.000000 0.000000 0.000000 
0.001956 0.965335 -0.020967 -3.763515 3.101099 -2.952651 11.432536 -0.311923 8.853002 -4.954906 0.419306 -7.771041 -1.667581 4.386447 17.676874 0.000000 0.000000 0.000000 3.094789 -1.220425 8.806352 -2.009038 -0.248324 -8.080161 -0.442680 -6.870525 17.514155 0.000000 0.000000 0.000000 -1.697637 -0.298745 9.906921 3.845374 -0.050030 -28.946120 -5.857259 -4.946791 25.869295 5.722512 -3.024450 -19.863601 0.000000 0.000000 0.000000 -16.075316 2.677104 -1.701480 -26.938288 -20.804998 -0.798087 16.290142 -23.502421 -2.111258 0.000000 0.000000 0.000000 -12.826785 -0.761152 0.617673 -1.558443 20.921932 -1.644983 -48.840190 0.279852 -0.218583 0.000000 0.000000 0.000000 
0.001433 0.964942 -0.021144 -3.750283 3.090779 -3.066498 11.704504 -0.331195 8.712618 -5.219008 0.436611 -7.265280 -1.670650 4.313098 17.468730 0.000000 0.000000 0.000000 3.006137 -1.224435 8.902359 -1.900488 -0.256696 -8.144329 -0.707528 -7.331422 17.519031 0.000000 0.000000 0.000000 -1.981611 -0.283223 10.146999 3.670343 -0.019074 -28.859426 -5.752014 -4.865554 25.660747 5.482911 -2.841611 -19.911229 0.000000 0.000000 0.000000 -16.620881 2.811146 -1.829348 -27.533090 -20.014875 -0.916882 15.438459 -24.334358 -2.021019 0.000000 0.000000 0.000000 -12.396471 -0.486321 0.651955 -1.079679 21.223328 -1.635783 -49.825088 -0.463523 0.113391 0.000000 0.000000 0.000000 
0.000949 0.964564 -0.021595 -3.815885 3.325743 -3.378054 11.989975 -0.359374 8.603235 -5.325876 0.446355 -6.729484 -1.800994 4.008769 17.023571 0.000000 0.000000 0.000000 3.104040 -1.239398 8.945165 -1.869153 -0.251685 -8.044667 -0.939781 -7.661389 17.391594 0.000000 0.000000 0.000000 -2.239691 -0.285959 10.838332 3.649788 -0.019054 -28.711834 -5.745367 -4.605818 25.282423 5.393616 -2.709012 -19.927805 0.000000 0.000000 0.000000 -17.036543 2.999885 -2.058232 -28.036895 -19.412140 -0.972765 14.836693 -25.762552 -2.046719 0.000000 0.000000 0.000000 -11.930962 -0.275009 0.633223 -0.617375 21.065664 -1.565971 -50.565493 -0.496353 0.219191 0.000000 0.000000 0.000000 
0.000571 0.964081 -0.022217 -3.806564 3.543725 -3.476995 12.057207 -0.373090 8.563682 -5.214368 0.440733 -6.600466 -1.867614 3.951997 17.052093 0.000000 0.000000 0.000000 3.165712 -1.255849 9.011656 -1.851228 -0.247864 -7.968868 -1.063239 -7.861030 17.491264 0.000000 0.000000 0.000000 -2.468057 -0.277373 11.153605 3.561198 -0.002937 -28.643846 -5.739839 -4.397954 25.100437 5.160819 -2.484748 -20.037356 0.000000 0.000000 0.000000 -17.349183 3.269972 -2.307841 -28.428210 -19.213817 -0.968448 14.107978 -26.473921 -1.963794 0.000000 0.000000 0.000000 -11.582378 0.079788 0.662351 -0.306983 20.943380 -1.519243 -50.807454 -0.079745 0.119486 0.000000 0.000000 0.000000 
0.000222 0.963549 -0.022981 -3.790349 3.894989 -3.515143 12.014618 -0.385207 8.545137 -5.291871 0.437567 -6.666825 -2.019024 3.773560 17.047364 0.000000 0.000000 0.000000 3.199747 -1.258730 8.985442 -1.708172 -0.249068 -7.881842 -1.192463 -8.033267 17.520197 0.000000 0.000000 0.000000 -2.672321 -0.271336 11.469824 3.402267 0.028180 -28.533295 -5.777960 -4.008767 24.773336 4.993877 -2.340336 -19.458935 0.000000 0.000000 0.000000 -17.453723 3.138952 -2.390735 -28.787085 -19.079990 -0.926763 14.001236 -26.996506 -2.022649 0.000000 0.000000 0.000000 -11.166620 0.222306 0.612602 -0.196206 20.510229 -1.451765 -50.523208 1.505678 -0.432776 0.000000 0.000000 0.000000 
0.000035 0.963146 -0.023713 -3.807348 4.234092 -3.568043 11.931879 -0.394821 8.624859 -5.137664 0.422200 -6.937169 -2.264731 3.517000 17.214667 0.000000 0.000000 0.000000 3.133194 -1.239635 8.869223 -1.525999 -0.243331 -7.639389 -1.357315 -8.303866 17.724093 0.000000 0.000000 0.000000 -2.816728 -0.277899 12.024074 3.121119 0.103612 -28.979744 -5.763410 -3.687810 24.831491 4.838036 -2.170128 -19.362085 0.000000 0.000000 0.000000 -17.728244 3.192490 -2.559922 -28.719534 -19.183678 -0.876445 14.145233 -27.113717 -2.104212 0.000000 0.000000 0.000000 -11.067635 0.302369 0.563879 -0.155939 19.992960 -1.393046 -49.521921 3.217024 -1.038071 0.000000 0.000000 0.000000 
-0.000076 0.962628 -0.024438 -3.889993 4.765804 -3.649142 12.073246 -0.437196 8.724417 -5.250346 0.412244 -7.257174 -2.300614 3.703001 17.670648 0.000000 0.000000 0.000000 2.994645 -1.222513 8.796246 -1.148534 -0.257719 -7.558851 -1.673915 -8.795786 17.893287 0.000000 0.000000 0.000000 -2.738131 -0.300045 12.247610 2.751653 0.176128 -28.771090 -5.915065 -3.472912 24.595429 4.501129 -1.889940 -19.099061 0.000000 0.000000 0.000000 -17.733013 2.916346 -2.545379 -28.482542 -19.107765 -0.842786 14.328545 -27.134705 -2.199489 0.000000 0.000000 0.000000 -10.739631 0.340353 0.502252 -0.185186 19.157274 -1.310884 -48.361235 5.231545 -1.730565 0.000000 0.000000 0.000000 
-0.000123 0.962572 -0.025031 -3.930271 5.249174 -3.582447 12.210973 -0.478411 8.713323 -5.267741 0.396383 -7.692564 -2.543223 3.504785 17.924685 0.000000 0.000000 0.000000 2.891605 -1.206537 8.705561 -0.920165 -0.266765 -7.503493 -1.672805 -8.735542 17.990089 0.000000 0.000000 0.000000 -2.763011 -0.311663 12.504779 2.415130 0.251879 -28.850579 -5.995234 -3.217994 24.572074 4.712038 -1.946013 -19.110453 0.000000 0.000000 0.000000 -17.785877 2.819829 -2.626522 -28.287273 -19.194928 -0.788218 15.464043 -27.766098 -2.574643 0.000000 0.000000 0.000000 -10.603771 0.273119 0.419476 -0.060863 18.143691 -1.215632 -47.345847 6.759985 -2.196645 0.000000 0.000000 0.000000 
-0.000141 0.962395 -0.025484 -3.992500 5.617329 -3.729894 12.473804 -0.525604 8.816553 -5.459206 0.387767 -8.031020 -2.584042 3.630019 18.283797 0.000000 0.000000 0.000000 2.930378 -1.233219 8.847496 -0.780836 -0.270767 -7.435770 -1.716619 -8.735931 17.899313 0.000000 0.000000 0.000000 -2.580229 -0.342780 12.684912 1.923388 0.358076 -28.933675 -5.994031 -2.942800 24.665339 4.445398 -1.737090 -18.758882 0.000000 0.000000 0.000000 -17.647746 2.793310 -2.705487 -27.926271 -19.142519 -0.781031 16.615020 -27.768337 -2.899631 0.000000 0.000000 0.000000 -10.713308 0.222411 0.348935 0.087699 17.293227 -1.138200 -46.140626 7.484632 -2.315563 0.000000 0.000000 0.000000 
-0.000080 0.962226 -0.025866 -4.008084 6.158994 -3.659636 12.552005 -0.556555 8.563047 -5.504325 0.379761 -7.980659 -2.745645 3.421756 18.152194 0.000000 0.000000 0.000000 2.976708 -1.223341 8.708132 -0.761357 -0.265192 -7.299862 -1.784346 -8.776441 17.969192 0.000000 0.000000 0.000000 -2.474370 -0.361718 12.720385 1.384140 0.470807 -28.661800 -6.093890 -2.995088 24.498875 4.563045 -1.787959 -18.624721 0.000000 0.000000 0.000000 -17.450509 2.875745 -2.797497 -27.405059 -19.177081 -0.750663 18.733767 -28.088574 -3.493783 0.000000 0.000000 0.000000 -10.762456 0.221391 0.321099 0.170613 16.266497 -1.056819 -45.735398 7.367754 -2.184485 0.000000 0.000000 0.000000 
0.000093 0.962301 -0.026254 -3.994891 6.359498 -3.734064 12.813112 -0.597361 8.651992 -5.623256 0.376940 -8.053884 -2.856603 3.349328 18.313458 0.000000 0.000000 0.000000 3.030618 -1.249878 8.847699 -0.806696 -0.258154 -7.212839 -1.718134 -8.616006 17.886010 0.000000 0.000000 0.000000 -2.402512 -0.382369 12.989973 0.844278 0.588749 -29.059056 -5.931483 -2.798541 24.819829 4.542208 -1.772572 -18.353246 0.000000 0.000000 0.000000 -17.388168 3.066209 -2.943714 -26.829942 -19.363501 -0.735794 21.484979 -28.048265 -4.202493 0.000000 0.000000 0.000000 -11.009000 -0.064325 0.208914 0.073949 15.915821 -1.031448 -45.710219 6.828041 -1.923759 0.000000 0.000000 0.000000 
